<svg width="1272" height="390" viewBox="0 0 1272 390" fill="none" xmlns="http://www.w3.org/2000/svg">
<path d="M605.715 389.293C592.374 389.293 586.026 384.967 586.754 376.315V129.697C585.784 121.045 592.01 116.719 605.351 116.719C618.693 116.719 625.242 120.762 625 128.848V146.556C631.248 136.532 640.107 128.399 650.627 123.029C661.147 117.658 672.931 115.254 684.714 116.073C710.346 116.881 730.493 126.854 745.155 145.99C759.817 165.127 766.798 188.346 766.098 215.649C765.37 242.953 757.486 265.445 742.446 283.126C727.407 300.807 707.327 310.011 682.207 310.739C657.06 311.413 638.193 303.583 625.606 287.249V376.194C625.687 384.926 619.057 389.293 605.715 389.293ZM656.413 268.005C663.22 271.068 670.599 272.652 678.063 272.652C685.527 272.652 692.906 271.068 699.713 268.005C706.337 264.932 712.121 260.307 716.576 254.521C721.032 248.736 724.026 241.961 725.304 234.772C728.987 219.726 728.987 204.013 725.304 188.966C723.606 181.89 720.08 175.383 715.078 170.098C710.076 164.812 703.774 160.932 696.802 158.847C682.394 153.374 666.406 153.824 652.33 160.1C645.412 163.013 639.366 167.669 634.782 173.613C630.198 179.558 627.232 186.588 626.172 194.02V240.999C630.943 252.804 641.023 261.766 656.413 267.884V268.005Z" fill="#1A2E59"/>
<path d="M804.708 61.2906C804.729 58.0355 805.394 54.8167 806.664 51.8194C807.934 48.8221 809.783 46.1053 812.106 43.8252C814.311 41.3683 817.01 39.4064 820.028 38.0685C823.045 36.7305 826.312 36.047 829.612 36.0628C832.69 36.0096 835.744 36.609 838.573 37.8215C841.402 39.034 843.942 40.8321 846.026 43.0975C850.396 48.2191 852.766 54.7481 852.699 61.48C852.632 68.2118 850.133 74.6924 845.663 79.7262C843.533 82.0239 840.949 83.8537 838.075 85.0996C835.2 86.3454 832.098 86.98 828.965 86.9631C825.714 87.0011 822.495 86.3257 819.533 84.9846C816.571 83.6434 813.939 81.669 811.823 79.2006C807.227 74.3742 804.677 67.9557 804.708 61.2906ZM828.965 116.679C815.381 116.679 808.751 121.085 808.953 129.494V295.254C808.468 304.876 815.327 309.62 829.531 309.485C843.722 309.485 850.069 304.633 848.654 295.254V129.494C849.18 120.843 842.63 116.598 828.965 116.679Z" fill="#1A2E59"/>
<path d="M1018.29 126.624C1027.24 114.819 1036.45 112.77 1045.91 120.479C1055.37 128.187 1056.63 137.216 1049.71 147.566L992.703 208.533L1051.89 274.918C1060.54 283.327 1059.4 291.993 1048.45 300.914C1037.51 309.835 1028.79 309.835 1022.3 300.914L969.941 239.542L917.626 302.329C910.187 310.415 901.535 309.754 891.67 300.348C881.806 290.941 881.563 282.101 890.942 273.826L945.077 211.404L894.177 149.709C886.091 139.602 886.873 130.519 896.522 122.46C906.171 114.401 916.332 115.304 927.005 125.169L970.669 179.303L1018.29 126.624Z" fill="#1A2E59"/>
<path d="M47.6723 302.167C43.8022 302.035 39.9848 301.228 36.3926 299.782C11.65 289.027 -0.317051 271.683 0.00638244 246.9L0.370261 54.4979V54.1746C0.00983428 52.5833 -0.0145412 50.9343 0.298731 49.3331C0.612004 47.732 1.25602 46.2138 2.18956 44.8758C5.49576 42.3341 9.64025 41.1356 13.7927 41.5202H14.48C20.5848 41.5202 24.8299 42.8948 26.6088 45.1993C27.4228 46.4836 27.9617 47.9226 28.1913 49.4257C28.4209 50.9288 28.3364 52.4631 27.9429 53.9319V54.3767L27.5791 235.58C29.2366 262.021 42.74 271.562 54.141 274.918C65.2994 281.993 63.8036 288.38 60.448 294.202C59.3034 296.613 57.4914 298.644 55.2269 300.056C52.9625 301.468 50.3406 302.2 47.6723 302.167Z" fill="#1A2E59"/>
<path d="M125.822 303.542C119.515 303.542 114.946 302.41 113.006 300.348C112.423 299.68 111.998 298.891 111.76 298.038C111.522 297.184 111.478 296.288 111.631 295.416V129.656C111.525 128.985 111.572 128.298 111.768 127.647C111.964 126.996 112.304 126.398 112.763 125.896C113.855 124.724 117.048 122.783 125.862 122.702C134.635 122.702 137.586 124.522 138.597 125.613C139.044 126.113 139.37 126.707 139.552 127.352C139.734 127.996 139.767 128.674 139.648 129.333V295.577V296.022C140.133 299.014 139.244 300.065 138.961 300.389C138.678 300.712 135.363 303.461 126.266 303.542H125.822ZM125.619 81.1818C123.184 81.2064 120.772 80.6937 118.557 79.6805C116.342 78.6673 114.378 77.1783 112.803 75.3195C109.225 71.563 107.253 66.5593 107.305 61.3715C107.328 58.8562 107.85 56.3704 108.843 54.0591C109.835 51.7477 111.278 49.657 113.086 47.9086C114.744 46.0282 116.785 44.5249 119.073 43.4997C121.36 42.4746 123.841 41.9514 126.347 41.9655C128.624 41.9172 130.885 42.3577 132.977 43.2574C135.07 44.1571 136.945 45.495 138.476 47.1809C141.816 51.2018 143.62 56.2775 143.569 61.5043C143.517 66.7311 141.612 71.77 138.193 75.7238C136.574 77.462 134.606 78.8393 132.419 79.7658C130.231 80.6923 127.873 81.1472 125.498 81.1009L125.619 81.1818Z" fill="#1A2E59"/>
<path d="M259.319 301.56C251.233 301.56 246.22 298.932 243.147 293.475L182.099 138.55C181.452 135.841 180.805 130.788 192.651 127.149C195.16 126.325 197.774 125.862 200.414 125.775C202.118 125.595 203.832 126.013 205.262 126.957C206.693 127.901 207.751 129.312 208.257 130.95L259.521 264.366L317.173 130.707C317.897 129.085 319.117 127.734 320.657 126.848C322.196 125.962 323.977 125.586 325.744 125.775C328.254 125.836 330.744 126.244 333.142 126.987C336.366 127.597 339.248 129.384 341.228 132.001C341.692 133.258 341.903 134.595 341.847 135.934C341.792 137.274 341.471 138.589 340.905 139.803L275.531 293.96C273.59 297.194 269.709 301.56 259.319 301.56Z" fill="#1A2E59"/>
<path d="M462.839 305.886C460.252 305.886 457.543 305.886 454.753 305.886C434.291 304.842 414.87 296.544 399.972 282.478C383.8 267.923 374.825 246.537 373.935 219.004C373.046 191.472 380.566 167.659 396.414 148.779C403.609 139.762 412.742 132.481 423.135 127.477C433.529 122.472 444.916 119.873 456.451 119.872H459.645C482.771 119.872 501.975 125.856 516.691 137.742C531.407 149.628 539.978 172.753 540.948 205.703C540.746 214.517 537.229 219.57 529.466 221.673H401.427L401.953 228.02C402.462 235.423 404.552 242.63 408.081 249.158C411.609 255.685 416.495 261.381 422.41 265.862C435.11 275.443 450.697 280.406 466.599 279.931C475.094 280.073 483.516 278.335 491.26 274.84C499.005 271.345 505.88 266.181 511.395 259.716L511.637 259.433L511.839 259.15C515.599 253.733 518.914 253.126 521.098 253.126C524.103 253.304 527.012 254.251 529.547 255.876C530.803 256.453 531.923 257.287 532.835 258.325C533.748 259.363 534.432 260.58 534.843 261.9C535.773 265.579 534.116 270.875 530.073 277.303C522.345 286.838 512.577 294.519 501.489 299.782C489.179 304.515 476.009 306.595 462.839 305.886ZM461.06 141.865C452.552 141.942 444.117 143.459 436.115 146.353C418.408 152.62 407.29 167.619 403.085 190.825L401.832 197.698H514.548L513.861 191.27C511.475 167.821 501.732 152.7 485.277 146.353C477.551 143.377 469.34 141.856 461.06 141.865Z" fill="#1A2E59"/>
<path d="M1174.23 159.291C1157.72 159.269 1141.9 152.703 1130.23 141.031C1118.56 129.36 1111.99 113.536 1111.97 97.0299V38.8524C1111.97 36.265 1111.97 30.7666 1125.15 30.7666C1138.33 30.7666 1138.37 36.0224 1138.37 38.8524V97.0299C1138.38 106.537 1142.16 115.653 1148.88 122.375C1155.61 129.098 1164.72 132.88 1174.23 132.891H1232.41C1234.99 132.891 1240.49 132.891 1240.49 146.07C1240.49 159.25 1235.04 159.291 1232.41 159.291H1174.23Z" fill="url(#paint0_linear_6_167)"/>
<path d="M1208.76 0.000476737C1225.27 -0.0640579 1241.13 6.42566 1252.87 18.0453C1264.6 29.665 1271.24 45.4653 1271.34 61.9783L1271.62 120.115C1271.62 122.743 1271.62 128.201 1258.48 128.201C1245.34 128.201 1245.26 123.026 1245.26 120.115L1244.94 61.9783C1244.88 52.4919 1241.06 43.4163 1234.33 36.7348C1227.59 30.0533 1218.49 26.3089 1209 26.3198L1150.82 26.6029C1148.19 26.6029 1142.74 26.6029 1142.74 13.4634C1142.74 0.323918 1148.07 0.243042 1150.82 0.243042L1208.76 0.000476737Z" fill="url(#paint1_linear_6_167)"/>
<path d="M1214.29 53.2046H1169.1C1167.02 53.2046 1165.34 54.888 1165.34 56.9645V102.164C1165.34 104.241 1167.02 105.924 1169.1 105.924H1214.29C1216.37 105.924 1218.05 104.241 1218.05 102.164V56.9645C1218.05 54.888 1216.37 53.2046 1214.29 53.2046Z" fill="url(#paint2_linear_6_167)"/>
<defs>
<linearGradient id="paint0_linear_6_167" x1="1111.97" y1="95.0489" x2="1240.45" y2="95.0489" gradientUnits="userSpaceOnUse">
<stop stop-color="#52abd5"/>
<stop offset="0.03" stop-color="#4EC4E9"/>
<stop offset="0.42" stop-color="#57C1CC"/>
<stop offset="0.75" stop-color="#5DBFBA"/>
<stop offset="1" stop-color="#5FBEB4"/>
</linearGradient>
<linearGradient id="paint1_linear_6_167" x1="-940339" y1="-34490.9" x2="-944434" y2="-34470.2" gradientUnits="userSpaceOnUse">
<stop stop-color="#52abd5"/>
<stop offset="0.03" stop-color="#4EC4E9"/>
<stop offset="0.42" stop-color="#57C1CC"/>
<stop offset="0.75" stop-color="#5DBFBA"/>
<stop offset="1" stop-color="#5FBEB4"/>
</linearGradient>
<linearGradient id="paint2_linear_6_167" x1="16359.7" y1="1090.73" x2="17047.1" y2="1090.73" gradientUnits="userSpaceOnUse">
<stop stop-color="#52abd5"/>
<stop offset="0.03" stop-color="#4EC4E9"/>
<stop offset="0.42" stop-color="#57C1CC"/>
<stop offset="0.75" stop-color="#5DBFBA"/>
<stop offset="1" stop-color="#5FBEB4"/>
</linearGradient>
</defs>
</svg>
